<svg id="Layer_1" data-name="Layer 1" xmlns="http://www.w3.org/2000/svg" viewBox="0 0 512.25 512.25"><defs><style>.cls-1{stroke:#fff;stroke-miterlimit:10;}</style></defs><path class="cls-1" d="M380,244.62V231.51c1.55-.23,2.92-.57,4.31-.64,21.44-1.08,41.53,3.74,59.8,15,29.81,18.32,47,45.09,51.37,79.8,2,16,.35,31.94-3,47.65-14.24,66.4-64.44,117.46-130.56,132.9a173,173,0,0,1-40.07,4.28c-32.13-.1-63.37-5.22-93.54-16.4-43-15.95-78.8-42.19-108.32-77.16C95.45,387.8,77.26,355,63.57,319.53c-10.47-27.13-17.8-55.12-23-83.71A644.74,644.74,0,0,1,31.91,167C30.77,151,29.85,134.87,29,118.8,27.64,91.26,27.58,63.71,28,36.15c.09-6.8.48-13.59.5-20.39,0-3,1.23-4.89,3.83-5.77,5.29-1.8,10.56-3.85,16-5,28.56-5.85,57.24-6.66,86-1,12.59,2.47,24.63,6.57,35.67,13.29a66,66,0,0,1,24.79,26.13c12.21,23.29,31.84,36.83,57.08,42.7A129.68,129.68,0,0,0,298.34,88c.93-.12,1.87-.15,3.14-.25a10.64,10.64,0,0,1-.51,2.12c-16.29,31.79-26.4,65.64-33.55,100.48a479.94,479.94,0,0,0-9.27,71.24c-.69,13.1-1.39,26.22-1.2,39.33.45,30.86,9.3,59,29,83.15,17.81,21.77,40.82,34.53,68.78,37.69,31.31,3.54,58.81-5.31,81.64-27.21,16.59-15.89,26.28-35.49,29.24-58.34,2.15-16.61.36-32.69-7.42-47.69-13-25-33.41-39.53-61.33-43.33-4.11-.55-8.32-.42-12.48-.58C383.12,244.58,381.82,244.62,380,244.62Z"/></svg>